# xmcd CD database file
#
# Track frame offsets:
#	150
#	19405
#	42316
#	57831
#	88777
#	108420
#	131554
#	153836
#	174653
#	190380
#	207717
#	228855
#	248765
#	268351
#	299881
#	324461
#
# Disc length: 4643 seconds
#
# Revision: 0
# Processed by: cddbd v1.5.1PL0 Copyright (c) Steve Scherf et al.
# Submitted via: CDex 1.51
#
DISCID=f5122110
DTITLE=salseros de coyuca - lo mejor de la salsa 2
DYEAR=1900
DGENRE=Salsa
TTITLE0=reyes del amor
TTITLE1=raquel
TTITLE2=pena que yo siento
TTITLE3=el gran barón
TTITLE4=la quiero a morir
TTITLE5=pequeñas cosas
TTITLE6=embrujo de amor
TTITLE7=plegaria
TTITLE8=luz angela
TTITLE9=mala mujer
TTITLE10=talento de television
TTITLE11=tú no le amas, le temes
TTITLE12=mujer araña
TTITLE13=caballo viejo
TTITLE14=jardín prohibido
TTITLE15=una aventura
EXTD=
EXTT0=
EXTT1=
EXTT2=
EXTT3=
EXTT4=
EXTT5=
EXTT6=
EXTT7=
EXTT8=
EXTT9=
EXTT10=
EXTT11=
EXTT12=
EXTT13=
EXTT14=
EXTT15=
PLAYORDER=
